{
  "accessors": [
    {
      "bufferView": 2,
      "componentType": 5126,
      "count": 33978,
      "max": [
        27736.11328125,
        28441.7734375,
        9990.515625
      ],
      "min": [
        1162.1328125,
        4722.10546875,
        4370.51025390625
      ],
      "type": "VEC3"
    },
    {
      "bufferView": 2,
      "byteOffset": 407736,
      "componentType": 5126,
      "count": 33978,
      "max": [
        1.0,
        1.0,
        1.0
      ],
      "min": [
        -1.0,
        -1.0,
        -1.0
      ],
      "type": "VEC3"
    },
    {
      "bufferView": 1,
      "componentType": 5126,
      "count": 33978,
      "max": [
        0.9932000041007996,
        0.9990000128746033
      ],
      "min": [
        0.0010000000474974513,
        0.0010000000474974513
      ],
      "type": "VEC2"
    },
    {
      "bufferView": 0,
      "componentType": 5125,
      "count": 94767,
      "type": "SCALAR"
    },
    {
      "bufferView": 2,
      "byteOffset": 815472,
      "componentType": 5126,
      "count": 34199,
      "max": [
        27200.94140625,
        29569.8203125,
        5971.59521484375
      ],
      "min": [
        1701.36328125,
        4539.4140625,
        2911.388671875
      ],
      "type": "VEC3"
    },
    {
      "bufferView": 2,
      "byteOffset": 1225860,
      "componentType": 5126,
      "count": 34199,
      "max": [
        1.0,
        1.0,
        1.0
      ],
      "min": [
        -1.0,
        -1.0,
        -1.0
      ],
      "type": "VEC3"
    },
    {
      "bufferView": 1,
      "byteOffset": 271824,
      "componentType": 5126,
      "count": 34199,
      "max": [
        1.0,
        1.0
      ],
      "min": [
        -0.0003000000142492354,
        0.0
      ],
      "type": "VEC2"
    },
    {
      "bufferView": 0,
      "byteOffset": 379068,
      "componentType": 5125,
      "count": 72702,
      "type": "SCALAR"
    },
    {
      "bufferView": 2,
      "byteOffset": 1636248,
      "componentType": 5126,
      "count": 25520,
      "max": [
        22201.416015625,
        33623.703125,
        5938.70556640625
      ],
      "min": [
        6672.4951171875,
        24211.26171875,
        1058.7001953125
      ],
      "type": "VEC3"
    },
    {
      "bufferView": 2,
      "byteOffset": 1942488,
      "componentType": 5126,
      "count": 25520,
      "max": [
        1.0,
        1.0,
        1.0
      ],
      "min": [
        -1.0,
        -1.0,
        -1.0
      ],
      "type": "VEC3"
    },
    {
      "bufferView": 1,
      "byteOffset": 545416,
      "componentType": 5126,
      "count": 25520,
      "max": [
        0.9994999766349792,
        1.0026999711990356
      ],
      "min": [
        0.0,
        0.0
      ],
      "type": "VEC2"
    },
    {
      "bufferView": 0,
      "byteOffset": 669876,
      "componentType": 5125,
      "count": 82572,
      "type": "SCALAR"
    },
    {
      "bufferView": 2,
      "byteOffset": 2248728,
      "componentType": 5126,
      "count": 8430,
      "max": [
        21150.193359375,
        15279.74609375,
        5931.20947265625
      ],
      "min": [
        7763.99169921875,
        0.0,
        1203.7060546875
      ],
      "type": "VEC3"
    },
    {
      "bufferView": 2,
      "byteOffset": 2349888,
      "componentType": 5126,
      "count": 8430,
      "max": [
        1.0,
        1.0,
        1.0
      ],
      "min": [
        -1.0,
        -1.0,
        -1.0
      ],
      "type": "VEC3"
    },
    {
      "bufferView": 1,
      "byteOffset": 749576,
      "componentType": 5126,
      "count": 8430,
      "max": [
        1.0,
        0.9998999834060669
      ],
      "min": [
        0.0,
        0.0
      ],
      "type": "VEC2"
    },
    {
      "bufferView": 0,
      "byteOffset": 1000164,
      "componentType": 5125,
      "count": 25569,
      "type": "SCALAR"
    },
    {
      "bufferView": 2,
      "byteOffset": 2451048,
      "componentType": 5126,
      "count": 16250,
      "max": [
        28909.798828125,
        31240.59375,
        5679.64501953125
      ],
      "min": [
        0.0,
        3177.85546875,
        1302.8232421875
      ],
      "type": "VEC3"
    },
    {
      "bufferView": 2,
      "byteOffset": 2646048,
      "componentType": 5126,
      "count": 16250,
      "max": [
        1.0,
        0.9999939203262329,
        1.0
      ],
      "min": [
        -0.9999870657920837,
        -1.0,
        -1.0
      ],
      "type": "VEC3"
    },
    {
      "bufferView": 1,
      "byteOffset": 817016,
      "componentType": 5126,
      "count": 16250,
      "max": [
        0.9843999743461609,
        1.0
      ],
      "min": [
        0.0,
        0.0
      ],
      "type": "VEC2"
    },
    {
      "bufferView": 0,
      "byteOffset": 1102440,
      "componentType": 5125,
      "count": 72711,
      "type": "SCALAR"
    },
    {
      "bufferView": 2,
      "byteOffset": 2841048,
      "componentType": 5126,
      "count": 6696,
      "max": [
        17898.734375,
        21094.1796875,
        9302.2451171875
      ],
      "min": [
        11010.583984375,
        13967.72265625,
        0.0
      ],
      "type": "VEC3"
    },
    {
      "bufferView": 2,
      "byteOffset": 2921400,
      "componentType": 5126,
      "count": 6696,
      "max": [
        1.0,
        1.0,
        1.0
      ],
      "min": [
        -1.0,
        -1.0,
        -1.0
      ],
      "type": "VEC3"
    },
    {
      "bufferView": 1,
      "byteOffset": 947016,
      "componentType": 5126,
      "count": 6696,
      "max": [
        1.0,
        0.9994999766349792
      ],
      "min": [
        0.0,
        0.0
      ],
      "type": "VEC2"
    },
    {
      "bufferView": 0,
      "byteOffset": 1393284,
      "componentType": 5125,
      "count": 22632,
      "type": "SCALAR"
    },
    {
      "bufferView": 2,
      "byteOffset": 3001752,
      "componentType": 5126,
      "count": 12999,
      "max": [
        22312.5234375,
        24610.078125,
        5056.2236328125
      ],
      "min": [
        6633.49072265625,
        10478.93359375,
        1995.958984375
      ],
      "type": "VEC3"
    },
    {
      "bufferView": 2,
      "byteOffset": 3157740,
      "componentType": 5126,
      "count": 12999,
      "max": [
        1.0,
        1.0,
        1.0
      ],
      "min": [
        -1.0,
        -1.0,
        -1.0
      ],
      "type": "VEC3"
    },
    {
      "bufferView": 1,
      "byteOffset": 1000584,
      "componentType": 5126,
      "count": 12999,
      "max": [
        0.5981000065803528,
        1.0
      ],
      "min": [
        0.0,
        0.0
      ],
      "type": "VEC2"
    },
    {
      "bufferView": 0,
      "byteOffset": 1483812,
      "componentType": 5125,
      "count": 31044,
      "type": "SCALAR"
    },
    {
      "bufferView": 2,
      "byteOffset": 3313728,
      "componentType": 5126,
      "count": 322,
      "max": [
        17971.65625,
        1041.099609375,
        4162.19580078125
      ],
      "min": [
        10938.0966796875,
        275.31640625,
        2838.376220703125
      ],
      "type": "VEC3"
    },
    {
      "bufferView": 2,
      "byteOffset": 3317592,
      "componentType": 5126,
      "count": 322,
      "max": [
        0.8379635810852051,
        -0.5445364117622375,
        0.838079571723938
      ],
      "min": [
        -0.837673544883728,
        -1.0,
        -0.838075578212738
      ],
      "type": "VEC3"
    },
    {
      "bufferView": 1,
      "byteOffset": 1104576,
      "componentType": 5126,
      "count": 322,
      "max": [
        0.9814000129699707,
        0.9965000152587891
      ],
      "min": [
        0.1444000005722046,
        0.004900000058114529
      ],
      "type": "VEC2"
    },
    {
      "bufferView": 0,
      "byteOffset": 1607988,
      "componentType": 5125,
      "count": 855,
      "type": "SCALAR"
    },
    {
      "bufferView": 2,
      "byteOffset": 3321456,
      "componentType": 5126,
      "count": 3407,
      "max": [
        28581.9921875,
        30919.37890625,
        5176.892578125
      ],
      "min": [
        310.73828125,
        3503.7734375,
        1814.77490234375
      ],
      "type": "VEC3"
    },
    {
      "bufferView": 2,
      "byteOffset": 3362340,
      "componentType": 5126,
      "count": 3407,
      "max": [
        0.9999720454216003,
        1.0,
        0.9610904455184937
      ],
      "min": [
        -1.0,
        -1.0,
        -0.9806196689605713
      ],
      "type": "VEC3"
    },
    {
      "bufferView": 1,
      "byteOffset": 1107152,
      "componentType": 5126,
      "count": 3407,
      "max": [
        1.0,
        1.2626999616622925
      ],
      "min": [
        0.0,
        0.0
      ],
      "type": "VEC2"
    },
    {
      "bufferView": 0,
      "byteOffset": 1611408,
      "componentType": 5125,
      "count": 8076,
      "type": "SCALAR"
    }
  ],
  "asset": {
    "extras": {
      "author": "lightwarrior (https://sketchfab.com/lightwarrior)",
      "license": "CC-BY-4.0 (http://creativecommons.org/licenses/by/4.0/)",
      "source": "https://sketchfab.com/3d-models/lucrehulk-class-battleship-463f1e75b70541febd2c24201585a3a7",
      "title": "Lucrehulk-class battleship"
    },
    "generator": "Sketchfab-12.58.1",
    "version": "2.0"
  },
  "bufferViews": [
    {
      "buffer": 0,
      "byteLength": 1643712,
      "name": "floatBufferViews",
      "target": 34963
    },
    {
      "buffer": 0,
      "byteLength": 1134408,
      "byteOffset": 1643712,
      "byteStride": 8,
      "name": "floatBufferViews",
      "target": 34962
    },
    {
      "buffer": 0,
      "byteLength": 3403224,
      "byteOffset": 2778120,
      "byteStride": 12,
      "name": "floatBufferViews",
      "target": 34962
    }
  ],
  "buffers": [
    {
      "byteLength": 6181344,
      "uri": "scene.bin"
    }
  ],
  "images": [
    {
      "uri": "textures/0767c4af_dds_baseColor.png"
    },
    {
      "uri": "textures/32ab8b88_dds_baseColor.png"
    },
    {
      "uri": "textures/32ab8b88_dds_emissive.png"
    },
    {
      "uri": "textures/598e53ff_dds_baseColor.png"
    },
    {
      "uri": "textures/598e53ff_dds_emissive.png"
    },
    {
      "uri": "textures/66cf081b_dds_baseColor.png"
    },
    {
      "uri": "textures/68e48626_dds_baseColor.png"
    },
    {
      "uri": "textures/7713ed25_dds_baseColor.png"
    },
    {
      "uri": "textures/7713ed25_dds_emissive.png"
    },
    {
      "uri": "textures/85521ce2_dds_baseColor.png"
    },
    {
      "uri": "textures/c6920a60_dds_baseColor.png"
    },
    {
      "uri": "textures/f7102f85_dds_baseColor.png"
    },
    {
      "uri": "textures/f7102f85_dds_emissive.png"
    }
  ],
  "materials": [
    {
      "doubleSided": true,
      "name": "0767c4af_dds",
      "pbrMetallicRoughness": {
        "baseColorTexture": {
          "index": 0
        },
        "roughnessFactor": 0.6
      }
    },
    {
      "doubleSided": true,
      "emissiveFactor": [
        1.0,
        1.0,
        1.0
      ],
      "emissiveTexture": {
        "index": 2
      },
      "name": "32ab8b88_dds",
      "pbrMetallicRoughness": {
        "baseColorTexture": {
          "index": 1
        },
        "roughnessFactor": 0.6
      }
    },
    {
      "doubleSided": true,
      "emissiveFactor": [
        1.0,
        1.0,
        1.0
      ],
      "emissiveTexture": {
        "index": 4
      },
      "name": "598e53ff_dds",
      "pbrMetallicRoughness": {
        "baseColorTexture": {
          "index": 3
        },
        "roughnessFactor": 0.6
      }
    },
    {
      "doubleSided": true,
      "name": "66cf081b_dds",
      "pbrMetallicRoughness": {
        "baseColorTexture": {
          "index": 5
        },
        "roughnessFactor": 0.6
      }
    },
    {
      "doubleSided": true,
      "name": "68e48626_dds",
      "pbrMetallicRoughness": {
        "baseColorTexture": {
          "index": 6
        },
        "roughnessFactor": 0.6
      }
    },
    {
      "doubleSided": true,
      "emissiveFactor": [
        1.0,
        1.0,
        1.0
      ],
      "emissiveTexture": {
        "index": 8
      },
      "name": "7713ed25_dds",
      "pbrMetallicRoughness": {
        "baseColorTexture": {
          "index": 7
        },
        "roughnessFactor": 0.6
      }
    },
    {
      "doubleSided": true,
      "name": "85521ce2_dds",
      "pbrMetallicRoughness": {
        "baseColorTexture": {
          "index": 9
        },
        "roughnessFactor": 0.6
      }
    },
    {
      "doubleSided": true,
      "emissiveFactor": [
        1.0,
        1.0,
        1.0
      ],
      "emissiveTexture": {
        "index": 10
      },
      "name": "c6920a60_dds",
      "pbrMetallicRoughness": {
        "baseColorTexture": {
          "index": 10
        },
        "metallicFactor": 0.0,
        "roughnessFactor": 0.6
      }
    },
    {
      "doubleSided": true,
      "emissiveFactor": [
        1.0,
        1.0,
        1.0
      ],
      "emissiveTexture": {
        "index": 12
      },
      "name": "f7102f85_dds",
      "pbrMetallicRoughness": {
        "baseColorTexture": {
          "index": 11
        },
        "roughnessFactor": 0.6
      }
    }
  ],
  "meshes": [
    {
      "name": "Object_0",
      "primitives": [
        {
          "attributes": {
            "NORMAL": 1,
            "POSITION": 0,
            "TEXCOORD_0": 2
          },
          "indices": 3,
          "material": 0,
          "mode": 4
        }
      ]
    },
    {
      "name": "Object_1",
      "primitives": [
        {
          "attributes": {
            "NORMAL": 5,
            "POSITION": 4,
            "TEXCOORD_0": 6
          },
          "indices": 7,
          "material": 1,
          "mode": 4
        }
      ]
    },
    {
      "name": "Object_2",
      "primitives": [
        {
          "attributes": {
            "NORMAL": 9,
            "POSITION": 8,
            "TEXCOORD_0": 10
          },
          "indices": 11,
          "material": 2,
          "mode": 4
        }
      ]
    },
    {
      "name": "Object_3",
      "primitives": [
        {
          "attributes": {
            "NORMAL": 13,
            "POSITION": 12,
            "TEXCOORD_0": 14
          },
          "indices": 15,
          "material": 3,
          "mode": 4
        }
      ]
    },
    {
      "name": "Object_4",
      "primitives": [
        {
          "attributes": {
            "NORMAL": 17,
            "POSITION": 16,
            "TEXCOORD_0": 18
          },
          "indices": 19,
          "material": 4,
          "mode": 4
        }
      ]
    },
    {
      "name": "Object_5",
      "primitives": [
        {
          "attributes": {
            "NORMAL": 21,
            "POSITION": 20,
            "TEXCOORD_0": 22
          },
          "indices": 23,
          "material": 5,
          "mode": 4
        }
      ]
    },
    {
      "name": "Object_6",
      "primitives": [
        {
          "attributes": {
            "NORMAL": 25,
            "POSITION": 24,
            "TEXCOORD_0": 26
          },
          "indices": 27,
          "material": 6,
          "mode": 4
        }
      ]
    },
    {
      "name": "Object_7",
      "primitives": [
        {
          "attributes": {
            "NORMAL": 29,
            "POSITION": 28,
            "TEXCOORD_0": 30
          },
          "indices": 31,
          "material": 7,
          "mode": 4
        }
      ]
    },
    {
      "name": "Object_8",
      "primitives": [
        {
          "attributes": {
            "NORMAL": 33,
            "POSITION": 32,
            "TEXCOORD_0": 34
          },
          "indices": 35,
          "material": 8,
          "mode": 4
        }
      ]
    }
  ],
  "nodes": [
    {
      "children": [
        1
      ],
      "matrix": [
        1.0,
        0.0,
        0.0,
        0.0,
        0.0,
        2.220446049250313e-16,
        -1.0,
        0.0,
        0.0,
        1.0,
        2.220446049250313e-16,
        0.0,
        0.0,
        0.0,
        0.0,
        1.0
      ],
      "name": "Sketchfab_model"
    },
    {
      "children": [
        2
      ],
      "matrix": [
        1.0,
        0.0,
        0.0,
        0.0,
        0.0,
        1.0,
        0.0,
        0.0,
        0.0,
        0.0,
        1.0,
        0.0,
        -14383.498046875,
        -14655.08203125,
        -3895.636474609375,
        1.0
      ],
      "name": "skfb_offset"
    },
    {
      "children": [
        3,
        4,
        5,
        6,
        7,
        8,
        9,
        10,
        11
      ],
      "name": "Object_2"
    },
    {
      "mesh": 0,
      "name": "Object_3"
    },
    {
      "mesh": 1,
      "name": "Object_4"
    },
    {
      "mesh": 2,
      "name": "Object_5"
    },
    {
      "mesh": 3,
      "name": "Object_6"
    },
    {
      "mesh": 4,
      "name": "Object_7"
    },
    {
      "mesh": 5,
      "name": "Object_8"
    },
    {
      "mesh": 6,
      "name": "Object_9"
    },
    {
      "mesh": 7,
      "name": "Object_10"
    },
    {
      "mesh": 8,
      "name": "Object_11"
    }
  ],
  "samplers": [
    {
      "magFilter": 9729,
      "minFilter": 9987,
      "wrapS": 10497,
      "wrapT": 10497
    }
  ],
  "scene": 0,
  "scenes": [
    {
      "name": "Sketchfab_Scene",
      "nodes": [
        0
      ]
    }
  ],
  "textures": [
    {
      "sampler": 0,
      "source": 0
    },
    {
      "sampler": 0,
      "source": 1
    },
    {
      "sampler": 0,
      "source": 2
    },
    {
      "sampler": 0,
      "source": 3
    },
    {
      "sampler": 0,
      "source": 4
    },
    {
      "sampler": 0,
      "source": 5
    },
    {
      "sampler": 0,
      "source": 6
    },
    {
      "sampler": 0,
      "source": 7
    },
    {
      "sampler": 0,
      "source": 8
    },
    {
      "sampler": 0,
      "source": 9
    },
    {
      "sampler": 0,
      "source": 10
    },
    {
      "sampler": 0,
      "source": 11
    },
    {
      "sampler": 0,
      "source": 12
    }
  ]
}
