<svg xmlns="http://www.w3.org/2000/svg" viewBox="0 0 1347 749"><rect x="0.5" y="0.5" width="498.9" height="748" style="fill:#fff"/><path d="M498.9,1V748H1V1H498.9m1-1H0V749H499.9V0Z"/><rect x="509.49" y="0.5" width="837.01" height="281.79" style="fill:#fff"/><path d="M1346,1V281.79H510V1h836m1-1H509V282.79h838V0Z"/><rect x="509.49" y="296.02" width="413.46" height="452.48" style="fill:#fff"/><path d="M922.45,296.52V748H510V296.52H922.45m1-1H509V749H923.45V295.52Z"/><rect x="933.04" y="296.02" width="413.46" height="452.48" style="fill:#fff"/><path d="M1346,296.52V748H933.54V296.52H1346m1-1H932.54V749H1347V295.52Z"/></svg>