{
  "accessors": [
    {
      "bufferView": 2,
      "componentType": 5126,
      "count": 2854,
      "max": [
        41.845703125,
        59.08203125,
        14.477543830871582
      ],
      "min": [
        -41.748046875,
        -100.0,
        -8.239736557006836
      ],
      "type": "VEC3"
    },
    {
      "bufferView": 2,
      "byteOffset": 34248,
      "componentType": 5126,
      "count": 2854,
      "max": [
        1.0,
        1.0,
        0.9999960660934448
      ],
      "min": [
        -1.0,
        -1.0,
        -0.9999943971633911
      ],
      "type": "VEC3"
    },
    {
      "bufferView": 1,
      "componentType": 5126,
      "count": 2854,
      "max": [
        0.9951171875,
        0.9940643310546875
      ],
      "min": [
        0.0031585693359375,
        0.0048828125
      ],
      "type": "VEC2"
    },
    {
      "bufferView": 0,
      "componentType": 5125,
      "count": 5859,
      "type": "SCALAR"
    },
    {
      "bufferView": 2,
      "byteOffset": 68496,
      "componentType": 5126,
      "count": 1647,
      "max": [
        40.8447265625,
        37.890625,
        14.062505722045898
      ],
      "min": [
        -40.7470703125,
        -38.9892578125,
        -0.6896982789039612
      ],
      "type": "VEC3"
    },
    {
      "bufferView": 2,
      "byteOffset": 88260,
      "componentType": 5126,
      "count": 1647,
      "max": [
        1.0,
        1.0,
        0.9999061822891235
      ],
      "min": [
        -1.0,
        -1.0,
        -0.9995837211608887
      ],
      "type": "VEC3"
    },
    {
      "bufferView": 1,
      "byteOffset": 22832,
      "componentType": 5126,
      "count": 1647,
      "max": [
        0.99365234375,
        0.76318359375
      ],
      "min": [
        0.1629638671875,
        0.0009765625
      ],
      "type": "VEC2"
    },
    {
      "bufferView": 0,
      "byteOffset": 23436,
      "componentType": 5125,
      "count": 2577,
      "type": "SCALAR"
    },
    {
      "bufferView": 2,
      "byteOffset": 108024,
      "componentType": 5126,
      "count": 3462,
      "max": [
        11.4501953125,
        -4.455565929412842,
        -2.2949326038360596
      ],
      "min": [
        -11.1328125,
        -66.015625,
        -4.406739234924316
      ],
      "type": "VEC3"
    },
    {
      "bufferView": 2,
      "byteOffset": 149568,
      "componentType": 5126,
      "count": 3462,
      "max": [
        1.0,
        1.0,
        0.9941354990005493
      ],
      "min": [
        -1.0,
        -1.0,
        -0.994392454624176
      ],
      "type": "VEC3"
    },
    {
      "bufferView": 1,
      "byteOffset": 36008,
      "componentType": 5126,
      "count": 3462,
      "max": [
        0.85986328125,
        0.4501953125
      ],
      "min": [
        0.1629638671875,
        0.0048828125
      ],
      "type": "VEC2"
    },
    {
      "bufferView": 0,
      "byteOffset": 33744,
      "componentType": 5125,
      "count": 5280,
      "type": "SCALAR"
    },
    {
      "bufferView": 2,
      "byteOffset": 191112,
      "componentType": 5126,
      "count": 15883,
      "max": [
        39.990234375,
        56.54296875,
        15.234378814697266
      ],
      "min": [
        -39.5751953125,
        -31.93359375,
        -8.227537155151367
      ],
      "type": "VEC3"
    },
    {
      "bufferView": 2,
      "byteOffset": 381708,
      "componentType": 5126,
      "count": 15883,
      "max": [
        1.0,
        1.0,
        1.0
      ],
      "min": [
        -1.0,
        -1.0,
        -1.0
      ],
      "type": "VEC3"
    },
    {
      "bufferView": 1,
      "byteOffset": 63704,
      "componentType": 5126,
      "count": 15883,
      "max": [
        0.89697265625,
        0.9720001220703125
      ],
      "min": [
        0.0030059814453125,
        0.0029296875
      ],
      "type": "VEC2"
    },
    {
      "bufferView": 0,
      "byteOffset": 54864,
      "componentType": 5125,
      "count": 35064,
      "type": "SCALAR"
    },
    {
      "bufferView": 2,
      "byteOffset": 572304,
      "componentType": 5126,
      "count": 1117,
      "max": [
        21.435546875,
        53.80859375,
        4.663094520568848
      ],
      "min": [
        -20.99609375,
        43.4326171875,
        -3.2958898544311523
      ],
      "type": "VEC3"
    },
    {
      "bufferView": 2,
      "byteOffset": 585708,
      "componentType": 5126,
      "count": 1117,
      "max": [
        1.0,
        1.0,
        1.0
      ],
      "min": [
        -0.9999695420265198,
        -0.007855149917304516,
        -1.0
      ],
      "type": "VEC3"
    },
    {
      "bufferView": 1,
      "byteOffset": 190768,
      "componentType": 5126,
      "count": 1117,
      "max": [
        0.5,
        0.8719482421875
      ],
      "min": [
        0.35009765625,
        0.0927734375
      ],
      "type": "VEC2"
    },
    {
      "bufferView": 0,
      "byteOffset": 195120,
      "componentType": 5125,
      "count": 3672,
      "type": "SCALAR"
    },
    {
      "bufferView": 2,
      "byteOffset": 599112,
      "componentType": 5126,
      "count": 12,
      "max": [
        31.494140625,
        20.947265625,
        -2.404782772064209
      ],
      "min": [
        -31.591796875,
        14.7216796875,
        -2.9479947090148926
      ],
      "type": "VEC3"
    },
    {
      "bufferView": 2,
      "byteOffset": 599256,
      "componentType": 5126,
      "count": 12,
      "max": [
        0.052578460425138474,
        -0.0430099293589592,
        -0.9976463913917542
      ],
      "min": [
        -0.052671100944280624,
        -0.044148948043584824,
        -0.9977053999900818
      ],
      "type": "VEC3"
    },
    {
      "bufferView": 1,
      "byteOffset": 199704,
      "componentType": 5126,
      "count": 12,
      "max": [
        0.072021484375,
        0.44287109375
      ],
      "min": [
        0.01800537109375,
        0.3662109375
      ],
      "type": "VEC2"
    },
    {
      "bufferView": 0,
      "byteOffset": 209808,
      "componentType": 5125,
      "count": 12,
      "type": "SCALAR"
    }
  ],
  "asset": {
    "extras": {
      "author": "lightwarrior (https://sketchfab.com/lightwarrior)",
      "license": "CC-BY-4.0 (http://creativecommons.org/licenses/by/4.0/)",
      "source": "https://sketchfab.com/3d-models/resurgent-class-star-destroyer-4e226c776d534465ba1ceb307b68d34b",
      "title": "Resurgent-Class Star Destroyer"
    },
    "generator": "Sketchfab-12.29.0",
    "version": "2.0"
  },
  "bufferViews": [
    {
      "buffer": 0,
      "byteLength": 209856,
      "name": "floatBufferViews",
      "target": 34963
    },
    {
      "buffer": 0,
      "byteLength": 199800,
      "byteOffset": 209856,
      "byteStride": 8,
      "name": "floatBufferViews",
      "target": 34962
    },
    {
      "buffer": 0,
      "byteLength": 599400,
      "byteOffset": 409656,
      "byteStride": 12,
      "name": "floatBufferViews",
      "target": 34962
    }
  ],
  "buffers": [
    {
      "byteLength": 1009056,
      "uri": "scene.bin"
    }
  ],
  "images": [
    {
      "uri": "textures/Tex_0015_0.dds_baseColor.png"
    },
    {
      "uri": "textures/Tex_0020_0.dds_baseColor.png"
    },
    {
      "uri": "textures/Tex_0020_0.dds_emissive.png"
    },
    {
      "uri": "textures/Tex_0024_0.dds_baseColor.png"
    },
    {
      "uri": "textures/Tex_0026_0.dds_baseColor.png"
    }
  ],
  "materials": [
    {
      "doubleSided": true,
      "name": "Tex_0015_0.dds",
      "pbrMetallicRoughness": {
        "baseColorTexture": {
          "index": 0
        },
        "roughnessFactor": 0.5711303412694526
      }
    },
    {
      "doubleSided": true,
      "emissiveFactor": [
        1.0,
        1.0,
        1.0
      ],
      "emissiveTexture": {
        "index": 2
      },
      "name": "Tex_0020_0.dds",
      "pbrMetallicRoughness": {
        "baseColorTexture": {
          "index": 1
        },
        "metallicFactor": 0.0,
        "roughnessFactor": 0.8929713596497552
      }
    },
    {
      "doubleSided": true,
      "name": "Tex_0020_0.dds_0",
      "pbrMetallicRoughness": {
        "baseColorTexture": {
          "index": 1
        },
        "metallicFactor": 0.0,
        "roughnessFactor": 0.8929713596497552
      }
    },
    {
      "doubleSided": true,
      "emissiveFactor": [
        1.0,
        1.0,
        1.0
      ],
      "emissiveTexture": {
        "index": 2
      },
      "name": "Tex_0020_0.dds_1",
      "pbrMetallicRoughness": {
        "baseColorTexture": {
          "index": 1
        },
        "metallicFactor": 0.0,
        "roughnessFactor": 0.8929713596497552
      }
    },
    {
      "doubleSided": true,
      "emissiveFactor": [
        1.0,
        1.0,
        1.0
      ],
      "emissiveTexture": {
        "index": 3
      },
      "name": "Tex_0024_0.dds",
      "pbrMetallicRoughness": {
        "baseColorTexture": {
          "index": 3
        },
        "metallicFactor": 0.0,
        "roughnessFactor": 0.8929713596497552
      }
    },
    {
      "doubleSided": true,
      "name": "Tex_0026_0.dds",
      "pbrMetallicRoughness": {
        "baseColorTexture": {
          "index": 4
        },
        "roughnessFactor": 0.8929713596497552
      }
    }
  ],
  "meshes": [
    {
      "name": "Mesh_0009_Tex_0015_0.dds_0",
      "primitives": [
        {
          "attributes": {
            "NORMAL": 1,
            "POSITION": 0,
            "TEXCOORD_0": 2
          },
          "indices": 3,
          "material": 0,
          "mode": 4
        }
      ]
    },
    {
      "name": "Mesh_0010_Tex_0020_0.dds_0",
      "primitives": [
        {
          "attributes": {
            "NORMAL": 5,
            "POSITION": 4,
            "TEXCOORD_0": 6
          },
          "indices": 7,
          "material": 1,
          "mode": 4
        }
      ]
    },
    {
      "name": "Mesh_0011_Tex_0020_0.dds_0",
      "primitives": [
        {
          "attributes": {
            "NORMAL": 9,
            "POSITION": 8,
            "TEXCOORD_0": 10
          },
          "indices": 11,
          "material": 2,
          "mode": 4
        }
      ]
    },
    {
      "name": "Mesh_0012_Tex_0020_0.dds_0",
      "primitives": [
        {
          "attributes": {
            "NORMAL": 13,
            "POSITION": 12,
            "TEXCOORD_0": 14
          },
          "indices": 15,
          "material": 3,
          "mode": 4
        }
      ]
    },
    {
      "name": "Mesh_0013_Tex_0024_0.dds_0",
      "primitives": [
        {
          "attributes": {
            "NORMAL": 17,
            "POSITION": 16,
            "TEXCOORD_0": 18
          },
          "indices": 19,
          "material": 4,
          "mode": 4
        }
      ]
    },
    {
      "name": "Mesh_0014_Tex_0026_0.dds_0",
      "primitives": [
        {
          "attributes": {
            "NORMAL": 21,
            "POSITION": 20,
            "TEXCOORD_0": 22
          },
          "indices": 23,
          "material": 5,
          "mode": 4
        }
      ]
    }
  ],
  "nodes": [
    {
      "children": [
        1
      ],
      "matrix": [
        1.0,
        0.0,
        0.0,
        0.0,
        0.0,
        2.220446049250313e-16,
        -1.0,
        0.0,
        0.0,
        1.0,
        2.220446049250313e-16,
        0.0,
        0.0,
        0.0,
        0.0,
        1.0
      ],
      "name": "Sketchfab_model"
    },
    {
      "children": [
        2
      ],
      "matrix": [
        0.02539999969303608,
        0.0,
        0.0,
        0.0,
        0.0,
        0.0,
        0.02539999969303608,
        0.0,
        0.0,
        -0.02539999969303608,
        0.0,
        0.0,
        0.0,
        0.0,
        0.0,
        1.0
      ],
      "name": "Resurgent Class Star Destroyer.FBX"
    },
    {
      "children": [
        3,
        5,
        7,
        9,
        11,
        13
      ],
      "name": "RootNode"
    },
    {
      "children": [
        4
      ],
      "matrix": [
        1.0,
        0.0,
        0.0,
        0.0,
        0.0,
        2.220446049250313e-16,
        -1.0,
        0.0,
        0.0,
        1.0,
        2.220446049250313e-16,
        0.0,
        0.0,
        0.0,
        0.0,
        1.0
      ],
      "name": "Mesh_0009"
    },
    {
      "mesh": 0,
      "name": "Mesh_0009_Tex_0015_0.dds_0"
    },
    {
      "children": [
        6
      ],
      "matrix": [
        1.0,
        0.0,
        0.0,
        0.0,
        0.0,
        2.220446049250313e-16,
        -1.0,
        0.0,
        0.0,
        1.0,
        2.220446049250313e-16,
        0.0,
        0.0,
        0.0,
        0.0,
        1.0
      ],
      "name": "Mesh_0010"
    },
    {
      "mesh": 1,
      "name": "Mesh_0010_Tex_0020_0.dds_0"
    },
    {
      "children": [
        8
      ],
      "matrix": [
        1.0,
        0.0,
        0.0,
        0.0,
        0.0,
        2.220446049250313e-16,
        -1.0,
        0.0,
        0.0,
        1.0,
        2.220446049250313e-16,
        0.0,
        0.0,
        0.0,
        0.0,
        1.0
      ],
      "name": "Mesh_0011"
    },
    {
      "mesh": 2,
      "name": "Mesh_0011_Tex_0020_0.dds_0"
    },
    {
      "children": [
        10
      ],
      "matrix": [
        1.0,
        0.0,
        0.0,
        0.0,
        0.0,
        2.220446049250313e-16,
        -1.0,
        0.0,
        0.0,
        1.0,
        2.220446049250313e-16,
        0.0,
        0.0,
        0.0,
        0.0,
        1.0
      ],
      "name": "Mesh_0012"
    },
    {
      "mesh": 3,
      "name": "Mesh_0012_Tex_0020_0.dds_0"
    },
    {
      "children": [
        12
      ],
      "matrix": [
        1.0,
        0.0,
        0.0,
        0.0,
        0.0,
        2.220446049250313e-16,
        -1.0,
        0.0,
        0.0,
        1.0,
        2.220446049250313e-16,
        0.0,
        0.0,
        0.0,
        0.0,
        1.0
      ],
      "name": "Mesh_0013"
    },
    {
      "mesh": 4,
      "name": "Mesh_0013_Tex_0024_0.dds_0"
    },
    {
      "children": [
        14
      ],
      "matrix": [
        1.0,
        0.0,
        0.0,
        0.0,
        0.0,
        2.220446049250313e-16,
        -1.0,
        0.0,
        0.0,
        1.0,
        2.220446049250313e-16,
        0.0,
        0.0,
        0.0,
        0.0,
        1.0
      ],
      "name": "Mesh_0014"
    },
    {
      "mesh": 5,
      "name": "Mesh_0014_Tex_0026_0.dds_0"
    }
  ],
  "samplers": [
    {
      "magFilter": 9729,
      "minFilter": 9987,
      "wrapS": 10497,
      "wrapT": 10497
    }
  ],
  "scene": 0,
  "scenes": [
    {
      "name": "Sketchfab_Scene",
      "nodes": [
        0
      ]
    }
  ],
  "textures": [
    {
      "sampler": 0,
      "source": 0
    },
    {
      "sampler": 0,
      "source": 1
    },
    {
      "sampler": 0,
      "source": 2
    },
    {
      "sampler": 0,
      "source": 3
    },
    {
      "sampler": 0,
      "source": 4
    }
  ]
}
